<!--?xml version="1.0" standalone="no"?-->
              <svg id="sw-js-blob-svg" viewBox="0 0 100 100" xmlns="http://www.w3.org/2000/svg" version="1.1">
                    <defs> 
                        <linearGradient id="sw-gradient" x1="0" x2="1" y1="1" y2="0">
                            <stop id="stop1" stop-color="rgba(54, 122, 241, 1)" offset="0%"></stop>
                            <stop id="stop2" stop-color="rgba(35, 88, 222, 1)" offset="100%"></stop>
                        </linearGradient>
                    </defs>
                <path fill="url(#sw-gradient)" d="M24.6,-29.6C30.2,-24.7,31.7,-15.3,32.6,-6.3C33.4,2.6,33.6,11,30.3,18.2C27,25.4,20.3,31.3,12.5,34C4.7,36.8,-4.2,36.3,-10.8,32.6C-17.4,29,-21.8,22,-27.1,14.7C-32.3,7.4,-38.6,-0.2,-39.4,-9C-40.3,-17.8,-35.9,-27.6,-28.4,-32.2C-21,-36.8,-10.5,-36.2,-0.5,-35.6C9.5,-35,19.1,-34.6,24.6,-29.6Z" width="100%" height="100%" transform="translate(50 50)" stroke-width="0" style="transition: all 0.3s ease 0s;"></path>
              </svg>