<svg width="71" height="72" viewBox="0 0 71 72" fill="none" xmlns="http://www.w3.org/2000/svg">
<ellipse cx="35.465" cy="36.4429" rx="35.465" ry="35.4673" fill="#067783" fill-opacity="0.1"/>
<path d="M70.68 36.4429C70.68 55.8929 54.9137 71.6602 35.465 71.6602C16.0163 71.6602 0.25 55.8929 0.25 36.4429C0.25 16.9929 16.0163 1.22559 35.465 1.22559C54.9137 1.22559 70.68 16.9929 70.68 36.4429Z" stroke="#1B234B" stroke-opacity="0.5" stroke-width="0.5"/>
<mask id="mask0_1652_113852" style="mask-type:alpha" maskUnits="userSpaceOnUse" x="17" y="18" width="38" height="38">
<rect x="17.3398" y="18.3154" width="36.8836" height="36.886" fill="#1B234B"/>
</mask>
<g mask="url(#mask0_1652_113852)">
<path d="M40.391 50.5903C37.3686 50.5903 34.6792 49.7322 32.3227 48.0159C29.9663 46.2997 28.3014 44.084 27.3281 41.3688H21.9492V38.2949H26.6365C26.5597 37.6802 26.5279 37.11 26.5412 36.5844C26.5535 36.0598 26.5853 35.6053 26.6365 35.2211H21.9492V32.1473H27.3281C28.3014 29.4321 29.9663 27.2163 32.3227 25.5001C34.6792 23.7839 37.3686 22.9258 40.391 22.9258C42.1584 22.9258 43.8299 23.2393 45.4057 23.8664C46.9804 24.4945 48.3825 25.3592 49.6119 26.4607L47.422 28.6124C46.4743 27.7927 45.4051 27.1523 44.2146 26.6912C43.0231 26.2302 41.7485 25.9996 40.391 25.9996C38.2139 25.9996 36.2672 26.5693 34.5511 27.7087C32.835 28.8491 31.5415 30.3286 30.6707 32.1473H40.391V35.2211H29.7486C29.6461 35.9127 29.6077 36.5213 29.6333 37.047C29.6589 37.5716 29.6973 37.9876 29.7486 38.2949H40.391V41.3688H30.6707C31.5415 43.1875 32.835 44.6665 34.5511 45.8058C36.2672 46.9462 38.2139 47.5164 40.391 47.5164C41.7485 47.5164 43.0231 47.2859 44.2146 46.8248C45.4051 46.3637 46.4743 45.7234 47.422 44.9037L49.6119 47.0554C48.3825 48.1568 46.9804 49.0211 45.4057 49.6481C43.8299 50.2762 42.1584 50.5903 40.391 50.5903Z" fill="#067783"/>
</g>
</svg>
