<svg width="614" height="616" viewBox="0 0 614 616" fill="none" xmlns="http://www.w3.org/2000/svg">
<g filter="url(#filter0_f_1652_113833)">
<path d="M389.257 237.564C431.385 281.783 420.299 368.213 390.735 437.222C361.171 506.232 313.868 557.822 251.045 587.971C188.221 617.451 110.615 626.161 41.1397 602.041C-27.5967 577.922 -87.464 521.642 -102.246 457.322C-117.028 393.003 -86.7248 321.313 -36.4659 275.083C14.5321 229.524 84.7467 210.764 168.265 201.384C251.045 192.674 347.128 193.344 389.257 237.564Z" fill="url(#paint0_linear_1652_113833)"/>
<path d="M389.257 237.564C431.385 281.783 420.299 368.213 390.735 437.222C361.171 506.232 313.868 557.822 251.045 587.971C188.221 617.451 110.615 626.161 41.1397 602.041C-27.5967 577.922 -87.464 521.642 -102.246 457.322C-117.028 393.003 -86.7248 321.313 -36.4659 275.083C14.5321 229.524 84.7467 210.764 168.265 201.384C251.045 192.674 347.128 193.344 389.257 237.564Z" stroke="url(#paint1_linear_1652_113833)"/>
</g>
<defs>
<filter id="filter0_f_1652_113833" x="-303" y="0" width="917" height="813" filterUnits="userSpaceOnUse" color-interpolation-filters="sRGB">
<feFlood flood-opacity="0" result="BackgroundImageFix"/>
<feBlend mode="normal" in="SourceGraphic" in2="BackgroundImageFix" result="shape"/>
<feGaussianBlur stdDeviation="98.5" result="effect1_foregroundBlur_1652_113833"/>
</filter>
<linearGradient id="paint0_linear_1652_113833" x1="-106" y1="616" x2="302.909" y2="105.596" gradientUnits="userSpaceOnUse">
<stop stop-color="#067783"/>
<stop offset="1" stop-color="#810683"/>
</linearGradient>
<linearGradient id="paint1_linear_1652_113833" x1="-106" y1="616" x2="302.909" y2="105.596" gradientUnits="userSpaceOnUse">
<stop stop-color="#1B234B"/>
<stop offset="1" stop-color="#067783"/>
</linearGradient>
</defs>
</svg>
